<svg width="32" height="24" viewBox="0 0 32 24" fill="none" xmlns="http://www.w3.org/2000/svg">
<g clip-path="url(#clip0_45_388)">
<g clip-path="url(#clip1_45_388)">
<path d="M18.5844 21.9469L18.4672 21.8391L10.2547 14.2125C8.81563 12.8766 8 11.0016 8 9.0375V8.88281C8 5.58281 10.3438 2.75156 13.5875 2.13281C15.4344 1.77656 17.3234 2.20312 18.8281 3.2625C19.25 3.5625 19.6438 3.90938 20 4.30781C20.1969 4.08281 20.4078 3.87656 20.6328 3.68438C20.8062 3.53437 20.9844 3.39375 21.1719 3.2625C22.6766 2.20312 24.5656 1.77656 26.4125 2.12812C29.6562 2.74687 32 5.58281 32 8.88281V9.0375C32 11.0016 31.1844 12.8766 29.7453 14.2125L21.5328 21.8391L21.4156 21.9469C21.0312 22.3031 20.525 22.5047 20 22.5047C19.475 22.5047 18.9688 22.3078 18.5844 21.9469ZM19.2078 6.79688C19.1891 6.78281 19.175 6.76406 19.1609 6.74531L18.3266 5.80781L18.3219 5.80312C17.2391 4.58906 15.6031 4.03594 14.0094 4.34062C11.825 4.75781 10.25 6.66094 10.25 8.88281V9.0375C10.25 10.3734 10.8078 11.6531 11.7875 12.5625L20 20.1891L28.2125 12.5625C29.1924 11.6521 29.7495 10.3751 29.75 9.0375V8.88281C29.75 6.66563 28.175 4.75781 25.9953 4.34062C24.4016 4.03594 22.7609 4.59375 21.6828 5.80312L21.6781 5.80781L21.6734 5.8125L20.8391 6.75C20.825 6.76875 20.8063 6.78281 20.7922 6.80156C20.5813 7.0125 20.2953 7.12969 20 7.12969C19.7047 7.12969 19.4187 7.0125 19.2078 6.80156" fill="white"/>
</g>
</g>
<defs>
<clipPath id="clip0_45_388">
<rect width="24" height="24" fill="white" transform="translate(8)"/>
</clipPath>
<clipPath id="clip1_45_388">
<rect width="24" height="24" fill="white" transform="translate(8)"/>
</clipPath>
</defs>
</svg>
